<svg width="108" height="108" viewBox="0 0 108 108" fill="none" xmlns="http://www.w3.org/2000/svg">
<g filter="url(#filter0_d_241_11)">
<path d="M101 50C101 77.6142 78.6142 100 51 100C23.3858 100 1 77.6142 1 50C1 22.3858 23.3858 0 51 0C78.6142 0 101 22.3858 101 50Z" fill="url(#paint0_linear_241_11)"/>
</g>
<path d="M60.5 20.25C59.9167 21.5833 59.3958 22.75 58.9375 23.75C58.4792 24.75 58.0833 25.6042 57.75 26.3125C57.375 27.1042 57.0625 27.8125 56.8125 28.4375C56.6042 28.8958 56.3333 29.5208 56 30.3125C55.6667 31.0208 55.25 31.9583 54.75 33.125C54.2917 34.25 53.6875 35.7083 52.9375 37.5C52.5625 35.9583 52.1042 34.6042 51.5625 33.4375C51.0208 32.2708 50.4375 31.25 49.8125 30.375C49.1875 29.5 48.5208 28.7917 47.8125 28.25C47.1458 27.6667 46.4792 27.1875 45.8125 26.8125C44.2708 25.9792 42.6458 25.5208 40.9375 25.4375C38.6875 25.5625 36.9167 25.9375 35.625 26.5625C34.375 27.1458 33.4583 27.8333 32.875 28.625C32.2917 29.375 31.9792 30.1667 31.9375 31C31.8958 31.7917 32 32.4583 32.25 33C32.4583 33.5 33.1875 34.0833 34.4375 34.75C35.7292 35.4167 37.2708 36.1875 39.0625 37.0625C40.8958 37.8958 42.8542 38.8542 44.9375 39.9375C47.0208 40.9792 48.9375 42.1458 50.6875 43.4375C52.4792 44.6875 53.9792 46.0625 55.1875 47.5625C56.4375 49.0208 57.125 50.5833 57.25 52.25C57.375 54.375 57.3542 56.2917 57.1875 58C57.0208 59.7083 56.4375 61.1667 55.4375 62.375C54.4375 63.5833 52.875 64.5417 50.75 65.25C48.6667 65.9583 45.7708 66.3958 42.0625 66.5625C38.2292 66.7292 35.0833 66.5208 32.625 65.9375C30.1667 65.3542 28.1667 64.5625 26.625 63.5625C25.125 62.5625 24 61.4583 23.25 60.25C22.5417 59.0417 22.0208 57.8958 21.6875 56.8125C21.3542 55.6875 21.125 54.7292 21 53.9375C20.875 53.1042 20.6667 52.6042 20.375 52.4375C20.0417 52.2292 19.7083 52.0417 19.375 51.875C19.0833 51.7083 18.7708 51.5625 18.4375 51.4375C18.1042 51.2708 17.7708 51.125 17.4375 51L35.625 48.0625C34.5833 48.8958 33.7708 49.6667 33.1875 50.375C32.6458 51.0833 32.2292 51.7083 31.9375 52.25C31.6042 52.875 31.375 53.4583 31.25 54C31.1667 54.5833 31.3542 55.3125 31.8125 56.1875C32.2708 57.0625 32.8958 57.9167 33.6875 58.75C34.5208 59.5417 35.4792 60.2083 36.5625 60.75C37.6458 61.2917 38.7708 61.5208 39.9375 61.4375C41.3958 61.3125 42.5833 60.9583 43.5 60.375C44.4167 59.75 45.1042 58.9792 45.5625 58.0625C46.0625 57.1458 46.3542 56.1458 46.4375 55.0625C46.5208 53.9792 46.4167 52.9167 46.125 51.875C45.875 50.7917 45.4583 49.7917 44.875 48.875C44.2917 47.9167 43.6042 47.125 42.8125 46.5C42.1042 46 41 45.5208 39.5 45.0625C38.0417 44.6042 36.3958 44.1042 34.5625 43.5625C32.7708 43.0208 30.9167 42.3958 29 41.6875C27.125 40.9792 25.4167 40.1042 23.875 39.0625C22.375 38.0208 21.1667 36.7917 20.25 35.375C19.375 33.9583 19.0417 32.25 19.25 30.25C19.4167 28.5417 19.9583 27.125 20.875 26C21.8333 24.8333 23.0208 23.9167 24.4375 23.25C25.8958 22.5417 27.5 22.0208 29.25 21.6875C31.0417 21.3542 32.8542 21.1667 34.6875 21.125C36.5625 21.0417 38.3958 21.0625 40.1875 21.1875C42.0208 21.3125 43.6667 21.4583 45.125 21.625C46.5833 21.7917 47.8125 21.9583 48.8125 22.125C49.8542 22.25 50.5 22.3333 50.75 22.375C51.8333 22.4583 52.9167 22.4375 54 22.3125C54.9583 22.2292 56 22.0417 57.125 21.75C58.2917 21.4167 59.4167 20.9167 60.5 20.25Z" fill="black"/>
<path d="M43.75 47.25C45.3333 47.625 46.75 47.9167 48 48.125C49.2917 48.2917 50.375 48.4167 51.25 48.5C52.2917 48.625 53.2083 48.6667 54 48.625C55 48.5833 56.25 48.4375 57.75 48.1875C59.25 47.9375 60.8333 47.6875 62.5 47.4375C64.1667 47.1875 65.8125 46.9792 67.4375 46.8125C69.0625 46.6458 70.4792 46.625 71.6875 46.75C72.8958 46.875 74.1667 47.1667 75.5 47.625C76.8333 48.0417 78.0833 48.625 79.25 49.375C80.4167 50.0833 81.4167 50.9583 82.25 52C83.125 53.0417 83.6667 54.25 83.875 55.625C84.0833 56.9583 83.9583 58.3958 83.5 59.9375C83.0417 61.4375 82.3125 62.9167 81.3125 64.375C80.3125 65.7917 79.0625 67.1042 77.5625 68.3125C76.0625 69.5208 74.3958 70.5 72.5625 71.25C71.1042 71.7917 69.5208 72.2083 67.8125 72.5C66.3542 72.75 64.6458 72.9167 62.6875 73C60.7708 73.0417 58.7292 72.8333 56.5625 72.375C56.2708 73.5833 56.1042 74.7083 56.0625 75.75C56.0625 76.75 56.1042 77.6458 56.1875 78.4375C56.3125 79.3542 56.4792 80.1875 56.6875 80.9375C56.9375 81.6875 57.25 82.5625 57.625 83.5625C57.9583 84.3958 58.3333 85.4167 58.75 86.625C59.2083 87.7917 59.75 89.1042 60.375 90.5625C59.625 90.5625 58.8958 90.5833 58.1875 90.625C57.4792 90.625 56.8333 90.6458 56.25 90.6875C55.5833 90.7292 54.9583 90.7708 54.375 90.8125C53.7083 90.8542 52.9583 90.9375 52.125 91.0625C51.4167 91.1458 50.5208 91.2708 49.4375 91.4375C48.3958 91.6042 47.2083 91.8125 45.875 92.0625C46.75 90.8125 47.4375 89.6667 47.9375 88.625C48.4792 87.5417 48.875 86.6042 49.125 85.8125C49.4167 84.8958 49.6042 84.0625 49.6875 83.3125C49.7292 82.6875 49.7292 81.5833 49.6875 80C49.6875 78.4167 49.6667 76.5833 49.625 74.5C49.5833 72.4167 49.5208 70.2292 49.4375 67.9375C49.3542 65.6458 49.25 63.5 49.125 61.5C49 59.4583 48.8542 57.7083 48.6875 56.25C48.5625 54.7917 48.4375 53.8333 48.3125 53.375C48.1458 52.8333 47.8542 52.25 47.4375 51.625C47.1042 51.0833 46.625 50.4583 46 49.75C45.4167 49 44.6667 48.1667 43.75 47.25ZM56.6875 59.5625C56.6458 59.9792 56.625 60.4167 56.625 60.875C56.625 61.75 56.6875 62.875 56.8125 64.25C57.1042 64.9583 57.4583 65.5417 57.875 66C58.3333 66.4583 58.8125 66.8125 59.3125 67.0625C59.8542 67.3125 60.3958 67.4792 60.9375 67.5625C61.4792 67.6458 62.0208 67.6875 62.5625 67.6875C63.8125 67.6458 65.125 67.3542 66.5 66.8125C68.3333 66.0208 69.625 64.8958 70.375 63.4375C71.125 61.9792 71.5208 60.4792 71.5625 58.9375C71.6042 57.3958 71.3333 55.9792 70.75 54.6875C70.2083 53.3958 69.5417 52.5208 68.75 52.0625C68.0833 51.7708 67.2292 51.6458 66.1875 51.6875C65.2708 51.7292 64.125 51.9583 62.75 52.375C61.375 52.7917 59.6875 53.5417 57.6875 54.625C57.4792 55.375 57.3125 56.0417 57.1875 56.625C57.0625 57.2083 56.9583 57.7292 56.875 58.1875C56.7917 58.6875 56.7292 59.1458 56.6875 59.5625Z" fill="black"/>
<defs>
<filter id="filter0_d_241_11" x="0" y="0" width="108" height="108" filterUnits="userSpaceOnUse" color-interpolation-filters="sRGB">
<feFlood flood-opacity="0" result="BackgroundImageFix"/>
<feColorMatrix in="SourceAlpha" type="matrix" values="0 0 0 0 0 0 0 0 0 0 0 0 0 0 0 0 0 0 127 0" result="hardAlpha"/>
<feOffset dx="3" dy="4"/>
<feGaussianBlur stdDeviation="2"/>
<feComposite in2="hardAlpha" operator="out"/>
<feColorMatrix type="matrix" values="0 0 0 0 0.644231 0 0 0 0 0.374769 0 0 0 0 0.322115 0 0 0 1 0"/>
<feBlend mode="normal" in2="BackgroundImageFix" result="effect1_dropShadow_241_11"/>
<feBlend mode="normal" in="SourceGraphic" in2="effect1_dropShadow_241_11" result="shape"/>
</filter>
<linearGradient id="paint0_linear_241_11" x1="51" y1="0" x2="51" y2="100" gradientUnits="userSpaceOnUse">
<stop stop-color="#FF512F"/>
<stop offset="1" stop-color="#DD8724"/>
</linearGradient>
</defs>
</svg>
